<svg xmlns="http://www.w3.org/2000/svg" width="400" height="400" viewBox="0 0 400 400">
  <defs>
    <linearGradient id="bg" x1="0%" y1="0%" x2="100%" y2="100%">
      <stop offset="0%" style="stop-color:#0A3854"/>
      <stop offset="100%" style="stop-color:#197272"/>
    </linearGradient>
  </defs>
  <rect width="400" height="400" fill="url(#bg)"/>
  <path d="M0,300 Q100,270 200,300 T400,300 L400,400 L0,400 Z" fill="rgba(255,255,255,0.05)"/>
  <path d="M0,340 Q100,310 200,340 T400,340 L400,400 L0,400 Z" fill="rgba(255,255,255,0.05)"/>
  <g transform="translate(200, 150) scale(1.4)" fill="rgba(255,255,255,0.12)">
    <ellipse cx="0" cy="0" rx="50" ry="22"/>
    <polygon points="45,-5 70,-22 70,22 45,5"/>
    <circle cx="-26" cy="-5" r="4" fill="rgba(255,255,255,0.2)"/>
    <path d="M-8,-20 Q2,-32 12,-20" stroke="rgba(255,255,255,0.1)" fill="none" stroke-width="2"/>
    <path d="M-8,20 Q2,30 12,20" stroke="rgba(255,255,255,0.08)" fill="none" stroke-width="2"/>
  </g>
  <text x="200" y="240" text-anchor="middle" fill="white" font-size="22" font-family="sans-serif" font-weight="bold" dy=".3em">Dorado Whole</text>
  <text x="200" y="270" text-anchor="middle" fill="rgba(255,255,255,0.6)" font-size="14" font-family="sans-serif" dy=".3em">Fresh Catch</text>
</svg>
